<svg width="36" height="14" viewBox="0 0 36 14" fill="none" xmlns="http://www.w3.org/2000/svg">
<path d="M3.24463 2.056L0.0926251 4.12V2.808L3.26063 0.615999H4.63663V11H3.24463V2.056ZM12.4534 3.256H17.5094V4.312H13.8934V11H12.4534V3.256ZM22.3561 11.16C21.6735 11.16 21.1615 11.1333 20.8201 11.08C20.4788 11.0373 20.1375 10.936 19.7961 10.776C19.4441 10.616 19.1881 10.36 19.0281 10.008C18.8681 9.64533 18.7881 9.16 18.7881 8.552V5.864C18.7881 5.384 18.8468 4.96267 18.9641 4.6C19.0815 4.23733 19.2361 3.95467 19.4281 3.752C19.5881 3.57067 19.8281 3.432 20.1481 3.336C20.4788 3.22933 20.8148 3.16 21.1561 3.128C21.5401 3.10667 21.9401 3.096 22.3561 3.096C22.9108 3.096 23.3268 3.112 23.6041 3.144C23.8921 3.16533 24.1961 3.21867 24.5161 3.304C24.8468 3.4 25.1028 3.544 25.2841 3.736C25.4655 3.928 25.6201 4.20533 25.7481 4.568C25.8655 4.94133 25.9241 5.37333 25.9241 5.864V8.552C25.9241 9.45867 25.7161 10.12 25.3001 10.536C25.1295 10.7067 24.8841 10.84 24.5641 10.936C24.2441 11.032 23.9135 11.096 23.5721 11.128C23.1668 11.1493 22.7615 11.16 22.3561 11.16ZM22.3561 10.216C22.8041 10.216 23.1295 10.2053 23.3321 10.184C23.5348 10.1627 23.7321 10.104 23.9241 10.008C24.1161 9.92267 24.2495 9.784 24.3241 9.592C24.4095 9.38933 24.4521 9.112 24.4521 8.76V5.624C24.4521 5.144 24.3935 4.79733 24.2761 4.584C24.1588 4.36 23.9561 4.216 23.6681 4.152C23.3908 4.07733 22.9535 4.04 22.3561 4.04C21.7588 4.04 21.3161 4.07733 21.0281 4.152C20.7508 4.216 20.5535 4.36 20.4361 4.584C20.3188 4.79733 20.2601 5.144 20.2601 5.624V8.76C20.2601 9.112 20.2975 9.38933 20.3721 9.592C20.4575 9.784 20.5961 9.92267 20.7881 10.008C20.9801 10.104 21.1775 10.1627 21.3801 10.184C21.5828 10.2053 21.9081 10.216 22.3561 10.216ZM35.5139 10.056V13.144H34.2819V11H28.3139V13.144H27.0819V10.056H27.5779C27.8125 10.056 28.0419 9.88 28.2659 9.528C28.4899 9.16533 28.6765 8.58933 28.8259 7.8C28.9752 7 29.0499 5.98667 29.0499 4.76V3.256H34.4259V10.056H35.5139ZM32.9859 10.056V4.2H30.3139V5.32C30.3139 6.42933 30.2392 7.384 30.0899 8.184C29.9512 8.97333 29.6899 9.59733 29.3059 10.056H32.9859Z" fill="black"/>
</svg>
