<svg width="43" height="15" viewBox="0 0 43 15" fill="none" xmlns="http://www.w3.org/2000/svg">
<path d="M0.323875 9.144C0.323875 8.84533 0.371875 8.568 0.467875 8.312C0.574542 8.04533 0.707875 7.82133 0.867875 7.64C0.995875 7.49067 1.18788 7.33067 1.44388 7.16C1.71054 6.97867 1.96121 6.82933 2.19588 6.712C2.39854 6.60533 2.66521 6.48267 2.99588 6.344L4.72388 5.576C5.40654 5.27733 5.74788 4.81333 5.74788 4.184V2.76C5.74788 2.26933 5.59854 1.944 5.29988 1.784C5.00121 1.61333 4.47854 1.528 3.73188 1.528C2.99588 1.528 1.98254 1.64 0.691875 1.864V0.743999C1.76921 0.541333 2.88388 0.44 4.03588 0.44C5.18788 0.44 6.01988 0.616 6.53188 0.967999C7.04388 1.30933 7.29988 1.88533 7.29988 2.696V4.392C7.29988 4.776 7.23588 5.096 7.10788 5.352C6.97988 5.59733 6.77188 5.82133 6.48388 6.024C6.20654 6.216 5.79588 6.43467 5.25188 6.68L2.85188 7.784C2.14788 8.104 1.79588 8.57333 1.79588 9.192V9.88H7.29988V11H0.323875V9.144ZM13.5571 2.056L10.4051 4.12V2.808L13.5731 0.615999H14.9491V11H13.5571V2.056ZM22.1824 11.16C21.3184 11.16 20.2997 11.064 19.1264 10.872V9.72C20.3637 9.976 21.3984 10.104 22.2304 10.104C22.881 10.104 23.3557 10.0133 23.6544 9.832C23.9637 9.64 24.1184 9.33067 24.1184 8.904V6.84C24.1184 6.392 23.9264 6.104 23.5424 5.976C23.361 5.92267 23.1904 5.89067 23.0304 5.88C22.881 5.85867 22.6837 5.848 22.4384 5.848H19.3664V0.615999H25.3504V1.704H20.8064V4.856H23.2064C23.633 4.856 24.0117 4.90933 24.3424 5.016C24.673 5.112 24.9664 5.28267 25.2224 5.528C25.489 5.79467 25.6224 6.14133 25.6224 6.568V8.936C25.6224 9.30933 25.553 9.64 25.4144 9.928C25.2864 10.2053 25.1104 10.424 24.8864 10.584C24.6837 10.7333 24.4224 10.856 24.1024 10.952C23.793 11.048 23.4837 11.1067 23.1744 11.128C22.7904 11.1493 22.4597 11.16 22.1824 11.16ZM28.3596 3.256H33.4156V4.312H29.7996V11H28.3596V3.256ZM34.9824 3.256H36.4224V4.088C36.5397 3.42667 37.4197 3.096 39.0624 3.096C40.0437 3.096 40.785 3.304 41.2864 3.72C41.7877 4.12533 42.0384 4.648 42.0384 5.288V8.472C42.0384 8.93067 41.969 9.33067 41.8304 9.672C41.7024 10.0133 41.5317 10.28 41.3184 10.472C41.1264 10.6533 40.8597 10.7973 40.5184 10.904C40.1877 11.0107 39.857 11.08 39.5264 11.112C39.2277 11.144 38.865 11.16 38.4384 11.16C37.969 11.16 37.537 11.1067 37.1424 11C36.7584 10.8827 36.5184 10.7173 36.4224 10.504V14.168H34.9824V3.256ZM38.4704 10.184C39.025 10.184 39.4464 10.1467 39.7344 10.072C40.033 9.98667 40.2464 9.83733 40.3744 9.624C40.5024 9.41067 40.5664 9.08533 40.5664 8.648V5.8C40.5664 5.32 40.5024 4.96267 40.3744 4.728C40.2464 4.49333 40.033 4.33867 39.7344 4.264C39.4464 4.17867 39.0197 4.136 38.4544 4.136C37.889 4.136 37.457 4.17867 37.1584 4.264C36.8704 4.33867 36.6624 4.49333 36.5344 4.728C36.4064 4.96267 36.3424 5.32 36.3424 5.8V8.648C36.3424 9.07467 36.4064 9.4 36.5344 9.624C36.673 9.83733 36.8917 9.98667 37.1904 10.072C37.489 10.1467 37.9157 10.184 38.4704 10.184Z" fill="black"/>
</svg>
