<svg width="20" height="12" viewBox="0 0 20 12" fill="none" xmlns="http://www.w3.org/2000/svg">
<path d="M3.11538 11.16C2.21938 11.16 1.21138 11.0587 0.0913751 10.856V9.704C1.36071 9.97067 2.42204 10.104 3.27538 10.104C4.69404 10.104 5.40338 9.704 5.40338 8.904V7.128C5.40338 6.69067 5.16871 6.40267 4.69938 6.264C4.47538 6.21067 4.27271 6.17867 4.09138 6.168C3.92071 6.14667 3.69671 6.136 3.41938 6.136H1.41938V5.144H3.14738C3.42471 5.144 3.64871 5.13867 3.81938 5.128C3.99004 5.10667 4.18738 5.064 4.41138 5C4.64604 4.94667 4.82738 4.84533 4.95538 4.696C5.08338 4.54667 5.14738 4.35467 5.14738 4.12V2.264C5.14738 1.72 4.50738 1.448 3.22738 1.448C2.37404 1.448 1.39804 1.53333 0.299375 1.704V0.599999C1.21671 0.503999 2.18738 0.455999 3.21138 0.455999C4.39538 0.455999 5.25404 0.589333 5.78738 0.856C6.33138 1.112 6.60338 1.55467 6.60338 2.184V4.184C6.60338 4.51467 6.47004 4.792 6.20338 5.016C5.93671 5.22933 5.59538 5.368 5.17938 5.432V5.496C5.43538 5.53867 5.64338 5.58667 5.80338 5.64C5.97404 5.68267 6.15538 5.752 6.34738 5.848C6.72071 6.04 6.90738 6.376 6.90738 6.856V8.936C6.90738 9.29867 6.82738 9.624 6.66738 9.912C6.50738 10.2 6.30471 10.424 6.05938 10.584C5.84604 10.7333 5.56338 10.856 5.21138 10.952C4.85938 11.0373 4.51271 11.096 4.17138 11.128C3.76604 11.1493 3.41404 11.16 3.11538 11.16ZM18.3081 7.512C18.1695 8.248 17.3215 8.616 15.7641 8.616C14.7721 8.616 14.0735 8.44 13.6681 8.088C13.2735 7.72533 13.0761 7.16 13.0761 6.392V3.256H14.5161V6.296C14.5161 6.78667 14.6441 7.12267 14.9001 7.304C15.1561 7.48533 15.5828 7.576 16.1801 7.576C16.7668 7.576 17.2095 7.53867 17.5081 7.464C17.8175 7.37867 18.0255 7.24533 18.1321 7.064C18.2495 6.88267 18.3081 6.62667 18.3081 6.296V3.256H19.7481V11H18.3081V7.512Z" fill="black"/>
</svg>
