<svg width="32" height="11" viewBox="0 0 32 11" fill="none" xmlns="http://www.w3.org/2000/svg">
<path d="M3.99463 2.056L0.842625 4.12V2.808L4.01063 0.615999H5.38663V11H3.99463V2.056ZM9.32388 9.144C9.32388 8.84533 9.37188 8.568 9.46788 8.312C9.57454 8.04533 9.70788 7.82133 9.86788 7.64C9.99588 7.49067 10.1879 7.33067 10.4439 7.16C10.7105 6.97867 10.9612 6.82933 11.1959 6.712C11.3985 6.60533 11.6652 6.48267 11.9959 6.344L13.7239 5.576C14.4065 5.27733 14.7479 4.81333 14.7479 4.184V2.76C14.7479 2.26933 14.5985 1.944 14.2999 1.784C14.0012 1.61333 13.4785 1.528 12.7319 1.528C11.9959 1.528 10.9825 1.64 9.69188 1.864V0.743999C10.7692 0.541333 11.8839 0.44 13.0359 0.44C14.1879 0.44 15.0199 0.616 15.5319 0.967999C16.0439 1.30933 16.2999 1.88533 16.2999 2.696V4.392C16.2999 4.776 16.2359 5.096 16.1079 5.352C15.9799 5.59733 15.7719 5.82133 15.4839 6.024C15.2065 6.216 14.7959 6.43467 14.2519 6.68L11.8519 7.784C11.1479 8.104 10.7959 8.57333 10.7959 9.192V9.88H16.2999V11H9.32388V9.144ZM22.4846 3.256H24.8046L27.1566 9.56H27.2206L29.4126 3.256H31.6526V11H30.3246V4.568H30.2446L27.8606 11H26.4046L23.9246 4.568H23.8446V11H22.4846V3.256Z" fill="black"/>
</svg>
