<svg width="22" height="12" viewBox="0 0 22 12" fill="none" xmlns="http://www.w3.org/2000/svg">
<path d="M5.34375 8.728H0.17575V7.464L4.87975 0.615999H6.67175V7.624H7.79175V8.728H6.67175V11H5.34375V8.728ZM5.34375 7.624V1.88L1.45575 7.624H5.34375ZM9.745 9.272H11.601V11H9.745V9.272ZM17.3428 11.16C16.8734 11.16 16.4894 11.144 16.1908 11.112C15.9028 11.08 15.5934 11.016 15.2628 10.92C14.9108 10.824 14.6281 10.6853 14.4148 10.504C14.2121 10.312 14.0414 10.0453 13.9028 9.704C13.7641 9.384 13.6948 8.984 13.6948 8.504V3.256C13.6948 2.776 13.7641 2.35467 13.9028 1.992C14.0414 1.62933 14.2228 1.34133 14.4468 1.128C14.6494 0.946666 14.9161 0.802666 15.2468 0.695999C15.5881 0.578666 15.9294 0.503999 16.2708 0.471999C16.6548 0.450666 17.0121 0.44 17.3428 0.44C17.8121 0.44 18.1908 0.456 18.4788 0.488C18.7774 0.52 19.0921 0.583999 19.4228 0.679999C19.7748 0.786666 20.0574 0.935999 20.2708 1.128C20.4948 1.32 20.6761 1.592 20.8148 1.944C20.9534 2.296 21.0228 2.728 21.0228 3.24V8.504C21.0228 8.94133 20.9534 9.33067 20.8148 9.672C20.6761 10.0133 20.4948 10.28 20.2708 10.472C20.0574 10.6533 19.7854 10.8027 19.4548 10.92C19.1241 11.0267 18.7881 11.0907 18.4468 11.112C18.1481 11.144 17.7801 11.16 17.3428 11.16ZM17.3748 10.216C17.9401 10.216 18.3774 10.1787 18.6868 10.104C18.9961 10.0187 19.2201 9.85867 19.3588 9.624C19.4974 9.38933 19.5668 9.04267 19.5668 8.584V3.144C19.5668 2.64267 19.4921 2.26933 19.3428 2.024C19.2041 1.768 18.9801 1.59733 18.6708 1.512C18.3721 1.42667 17.9348 1.384 17.3588 1.384C16.7721 1.384 16.3241 1.42667 16.0148 1.512C15.7161 1.59733 15.4974 1.768 15.3588 2.024C15.2201 2.26933 15.1508 2.64267 15.1508 3.144V8.584C15.1508 9.04267 15.2201 9.38933 15.3588 9.624C15.5081 9.85867 15.7374 10.0187 16.0468 10.104C16.3561 10.1787 16.7988 10.216 17.3748 10.216Z" fill="black"/>
</svg>
