<svg xmlns="http://www.w3.org/2000/svg">
    <symbol id="vk" viewBox="0 0 112.196 112.196">
        <g xmlns="http://www.w3.org/2000/svg"><g><circle cx="56.098" cy="56.098" id="XMLID_11_" r="56.098"/></g><path d="M53.979,80.702h4.403c0,0,1.33-0.146,2.009-0.878   c0.625-0.672,0.605-1.934,0.605-1.934s-0.086-5.908,2.656-6.778c2.703-0.857,6.174,5.71,9.853,8.235   c2.782,1.911,4.896,1.492,4.896,1.492l9.837-0.137c0,0,5.146-0.317,2.706-4.363c-0.2-0.331-1.421-2.993-7.314-8.463   c-6.168-5.725-5.342-4.799,2.088-14.702c4.525-6.031,6.334-9.713,5.769-11.29c-0.539-1.502-3.867-1.105-3.867-1.105l-11.076,0.069   c0,0-0.821-0.112-1.43,0.252c-0.595,0.357-0.978,1.189-0.978,1.189s-1.753,4.667-4.091,8.636c-4.932,8.375-6.904,8.817-7.71,8.297   c-1.875-1.212-1.407-4.869-1.407-7.467c0-8.116,1.231-11.5-2.397-12.376c-1.204-0.291-2.09-0.483-5.169-0.514   c-3.952-0.041-7.297,0.012-9.191,0.94c-1.26,0.617-2.232,1.992-1.64,2.071c0.732,0.098,2.39,0.447,3.269,1.644   c1.135,1.544,1.095,5.012,1.095,5.012s0.652,9.554-1.523,10.741c-1.493,0.814-3.541-0.848-7.938-8.446   c-2.253-3.892-3.954-8.194-3.954-8.194s-0.328-0.804-0.913-1.234c-0.71-0.521-1.702-0.687-1.702-0.687l-10.525,0.069   c0,0-1.58,0.044-2.16,0.731c-0.516,0.611-0.041,1.875-0.041,1.875s8.24,19.278,17.57,28.993   C44.264,81.287,53.979,80.702,53.979,80.702L53.979,80.702z" style="fill-rule:evenodd;clip-rule:evenodd;fill:#FFFFFF;"/></g>
    </symbol>
    <symbol id="fb" viewBox="0 0 112.196 112.196">
        <g xmlns="http://www.w3.org/2000/svg"><circle cx="56.098" cy="56.098" r="56.098"/><path d="M70.201,58.294h-10.01v36.672H45.025V58.294h-7.213V45.406h7.213v-8.34   c0-5.964,2.833-15.303,15.301-15.303L71.56,21.81v12.51h-8.151c-1.337,0-3.217,0.668-3.217,3.513v7.585h11.334L70.201,58.294z" style="fill:#FFFFFF;"/></g>
    </symbol>
    <symbol id="inst" viewBox="0 0 48 48" >
        <path xmlns="http://www.w3.org/2000/svg" fill-rule="evenodd" clip-rule="evenodd" d="M0 24C0 10.7452 10.7452 0 24 0C37.2548 0 48 10.7452 48 24C48 37.2548 37.2548 48 24 48C10.7452 48 0 37.2548 0 24ZM24.0012 11.2C20.5249 11.2 20.0886 11.2152 18.7233 11.2773C17.3606 11.3397 16.4305 11.5555 15.6166 11.872C14.7747 12.1989 14.0606 12.6363 13.3491 13.348C12.6371 14.0595 12.1997 14.7736 11.8717 15.6152C11.5544 16.4294 11.3384 17.3598 11.2771 18.7219C11.216 20.0873 11.2 20.5238 11.2 24.0001C11.2 27.4764 11.2155 27.9114 11.2773 29.2767C11.34 30.6394 11.5557 31.5695 11.872 32.3834C12.1992 33.2253 12.6365 33.9394 13.3483 34.6509C14.0595 35.3629 14.7736 35.8013 15.615 36.1283C16.4294 36.4448 17.3598 36.6605 18.7222 36.7229C20.0876 36.7851 20.5236 36.8003 23.9996 36.8003C27.4762 36.8003 27.9111 36.7851 29.2765 36.7229C30.6391 36.6605 31.5703 36.4448 32.3848 36.1283C33.2264 35.8013 33.9394 35.3629 34.6506 34.6509C35.3626 33.9394 35.8 33.2253 36.128 32.3837C36.4427 31.5695 36.6587 30.6391 36.7227 29.277C36.784 27.9116 36.8 27.4764 36.8 24.0001C36.8 20.5238 36.784 20.0876 36.7227 18.7222C36.6587 17.3595 36.4427 16.4294 36.128 15.6155C35.8 14.7736 35.3626 14.0595 34.6506 13.348C33.9386 12.636 33.2266 12.1987 32.384 11.872C31.5679 11.5555 30.6373 11.3397 29.2746 11.2773C27.9092 11.2152 27.4746 11.2 23.9972 11.2H24.0012Z"/><path xmlns="http://www.w3.org/2000/svg" fill-rule="evenodd" clip-rule="evenodd" d="M22.8529 13.5067C23.1937 13.5062 23.574 13.5067 24.0012 13.5067C27.4188 13.5067 27.8239 13.519 29.1735 13.5803C30.4215 13.6374 31.0989 13.8459 31.5501 14.0211C32.1474 14.2531 32.5733 14.5304 33.021 14.9784C33.469 15.4264 33.7464 15.8531 33.9789 16.4505C34.1541 16.9011 34.3629 17.5785 34.4197 18.8265C34.481 20.1758 34.4944 20.5812 34.4944 23.9972C34.4944 27.4132 34.481 27.8186 34.4197 29.1679C34.3626 30.4159 34.1541 31.0933 33.9789 31.5439C33.7469 32.1413 33.469 32.5666 33.021 33.0144C32.573 33.4624 32.1477 33.7397 31.5501 33.9717C31.0994 34.1477 30.4215 34.3557 29.1735 34.4128C27.8242 34.4741 27.4188 34.4874 24.0012 34.4874C20.5833 34.4874 20.1782 34.4741 18.8289 34.4128C17.5809 34.3552 16.9035 34.1466 16.4521 33.9714C15.8547 33.7394 15.428 33.4621 14.98 33.0141C14.532 32.5661 14.2547 32.1405 14.0222 31.5429C13.847 31.0922 13.6382 30.4149 13.5814 29.1669C13.52 27.8175 13.5078 27.4122 13.5078 23.994C13.5078 20.5758 13.52 20.1726 13.5814 18.8233C13.6384 17.5753 13.847 16.8979 14.0222 16.4467C14.2542 15.8494 14.532 15.4227 14.98 14.9747C15.428 14.5267 15.8547 14.2494 16.4521 14.0168C16.9033 13.8408 17.5809 13.6328 18.8289 13.5755C20.0097 13.5222 20.4673 13.5062 22.8529 13.5035V13.5067ZM30.8338 15.632C29.9858 15.632 29.2978 16.3193 29.2978 17.1675C29.2978 18.0155 29.9858 18.7035 30.8338 18.7035C31.6818 18.7035 32.3698 18.0155 32.3698 17.1675C32.3698 16.3195 31.6818 15.632 30.8338 15.632ZM24.0012 17.4267C20.371 17.4267 17.4278 20.37 17.4278 24.0001C17.4278 27.6303 20.371 30.5722 24.0012 30.5722C27.6314 30.5722 30.5735 27.6303 30.5735 24.0001C30.5735 20.37 27.6314 17.4267 24.0012 17.4267Z"/><path xmlns="http://www.w3.org/2000/svg" fill-rule="evenodd" clip-rule="evenodd" d="M24.0012 19.7334C26.3575 19.7334 28.2679 21.6436 28.2679 24.0001C28.2679 26.3564 26.3575 28.2668 24.0012 28.2668C21.6446 28.2668 19.7345 26.3564 19.7345 24.0001C19.7345 21.6436 21.6446 19.7334 24.0012 19.7334Z" />
    </symbol>
    <symbol id="telegramm" viewBox="0 0 32 32">
        <path xmlns="http://www.w3.org/2000/svg" d="M16 0.5c-8.563 0-15.5 6.938-15.5 15.5s6.938 15.5 15.5 15.5c8.563 0 15.5-6.938 15.5-15.5s-6.938-15.5-15.5-15.5zM23.613 11.119l-2.544 11.988c-0.188 0.85-0.694 1.056-1.4 0.656l-3.875-2.856-1.869 1.8c-0.206 0.206-0.381 0.381-0.781 0.381l0.275-3.944 7.181-6.488c0.313-0.275-0.069-0.431-0.482-0.156l-8.875 5.587-3.825-1.194c-0.831-0.262-0.85-0.831 0.175-1.231l14.944-5.763c0.694-0.25 1.3 0.169 1.075 1.219z"/>
    </symbol>
    <symbol id="bluetooth" width="32" height="32" viewBox="0 0 32 32">
        <g xmlns="http://www.w3.org/2000/svg" clip-path="url(#clip0)">
            <path d="M22.2054 21.5212L17.1636 16L22.2054 10.4794C22.3637 10.3056 22.4445 10.0739 22.4276 9.83901C22.4107 9.60388 22.2984 9.38591 22.1163 9.23643L15.9874 4.19591C15.7305 3.98455 15.3753 3.94016 15.0746 4.08252C14.7739 4.22427 14.5823 4.52671 14.5823 4.85924V13.1736L11.0639 9.32043C10.7443 8.97018 10.2004 8.94552 9.85017 9.26544C9.49992 9.58537 9.47526 10.1286 9.79518 10.4792L14.5823 15.7217V16.2784L9.79523 21.5212C9.47503 21.8711 9.49968 22.4147 9.85022 22.7349C10.2007 23.0551 10.7441 23.0304 11.064 22.6796L14.5821 18.827V27.1408C14.5821 27.473 14.774 27.7757 15.0744 27.9178C15.1913 27.9728 15.3167 28 15.4413 28C15.6369 28 15.8305 27.9336 15.9874 27.8047L22.1163 22.7641C22.2984 22.6143 22.4107 22.3964 22.4276 22.1615C22.4445 21.9267 22.3643 21.695 22.2054 21.5212ZM16.3007 6.67837L20.326 9.98854L16.3007 14.3968V6.67837ZM16.3007 25.3216V17.6035L20.326 22.0115L16.3007 25.3216Z" fill="black"/>
        </g>
        <defs xmlns="http://www.w3.org/2000/svg">
            <clipPath id="clip0">
            <rect width="24" height="24" fill="white" transform="translate(4 4)"/>
            </clipPath>
        </defs>
    </symbol>
    <symbol id="bluetooth__text" width="22" height="12" viewBox="0 0 22 12">
        <path xmlns="http://www.w3.org/2000/svg" d="M5.34375 8.728H0.17575V7.464L4.87975 0.615999H6.67175V7.624H7.79175V8.728H6.67175V11H5.34375V8.728ZM5.34375 7.624V1.88L1.45575 7.624H5.34375ZM9.745 9.272H11.601V11H9.745V9.272ZM17.3428 11.16C16.8734 11.16 16.4894 11.144 16.1908 11.112C15.9028 11.08 15.5934 11.016 15.2628 10.92C14.9108 10.824 14.6281 10.6853 14.4148 10.504C14.2121 10.312 14.0414 10.0453 13.9028 9.704C13.7641 9.384 13.6948 8.984 13.6948 8.504V3.256C13.6948 2.776 13.7641 2.35467 13.9028 1.992C14.0414 1.62933 14.2228 1.34133 14.4468 1.128C14.6494 0.946666 14.9161 0.802666 15.2468 0.695999C15.5881 0.578666 15.9294 0.503999 16.2708 0.471999C16.6548 0.450666 17.0121 0.44 17.3428 0.44C17.8121 0.44 18.1908 0.456 18.4788 0.488C18.7774 0.52 19.0921 0.583999 19.4228 0.679999C19.7748 0.786666 20.0574 0.935999 20.2708 1.128C20.4948 1.32 20.6761 1.592 20.8148 1.944C20.9534 2.296 21.0228 2.728 21.0228 3.24V8.504C21.0228 8.94133 20.9534 9.33067 20.8148 9.672C20.6761 10.0133 20.4948 10.28 20.2708 10.472C20.0574 10.6533 19.7854 10.8027 19.4548 10.92C19.1241 11.0267 18.7881 11.0907 18.4468 11.112C18.1481 11.144 17.7801 11.16 17.3428 11.16ZM17.3748 10.216C17.9401 10.216 18.3774 10.1787 18.6868 10.104C18.9961 10.0187 19.2201 9.85867 19.3588 9.624C19.4974 9.38933 19.5668 9.04267 19.5668 8.584V3.144C19.5668 2.64267 19.4921 2.26933 19.3428 2.024C19.2041 1.768 18.9801 1.59733 18.6708 1.512C18.3721 1.42667 17.9348 1.384 17.3588 1.384C16.7721 1.384 16.3241 1.42667 16.0148 1.512C15.7161 1.59733 15.4974 1.768 15.3588 2.024C15.2201 2.26933 15.1508 2.64267 15.1508 3.144V8.584C15.1508 9.04267 15.2201 9.38933 15.3588 9.624C15.5081 9.85867 15.7374 10.0187 16.0468 10.104C16.3561 10.1787 16.7988 10.216 17.3748 10.216Z" fill="black"/>
    </symbol>
    <symbol id="road" width="32" height="32" viewBox="0 0 32 32">
        <path xmlns="http://www.w3.org/2000/svg" d="M9.25 8.5C6.355 8.5 4 10.855 4 13.75C4 16.444 8.212 21.2155 8.692 21.751C8.8345 21.9085 9.037 22 9.25 22C9.463 22 9.6655 21.9085 9.808 21.751C10.288 21.2155 14.5 16.444 14.5 13.75C14.5 10.855 12.145 8.5 9.25 8.5ZM9.25 20.1055C7.612 18.163 5.5 15.181 5.5 13.75C5.5 11.683 7.183 10 9.25 10C11.317 10 13 11.683 13 13.75C13 15.1795 10.888 18.163 9.25 20.1055Z" fill="black"/>
        <path xmlns="http://www.w3.org/2000/svg" d="M9.25 11.5C8.0095 11.5 7 12.5095 7 13.75C7 14.9905 8.0095 16 9.25 16C10.4905 16 11.5 14.9905 11.5 13.75C11.5 12.5095 10.4905 11.5 9.25 11.5ZM9.25 14.5C8.836 14.5 8.5 14.164 8.5 13.75C8.5 13.336 8.836 13 9.25 13C9.664 13 10 13.336 10 13.75C10 14.164 9.664 14.5 9.25 14.5Z" fill="black"/>
        <path xmlns="http://www.w3.org/2000/svg" d="M27.25 4H21.25C20.836 4 20.5 4.336 20.5 4.75V9.25V12.25C20.5 12.664 20.836 13 21.25 13C21.664 13 22 12.664 22 12.25V10H27.25C27.664 10 28 9.664 28 9.25V4.75C28 4.336 27.664 4 27.25 4ZM26.5 8.5H22V5.5H26.5V8.5Z" fill="black"/>
        <path xmlns="http://www.w3.org/2000/svg" d="M25 20.5H17.5C16.6735 20.5 16 19.8265 16 19C16 18.1735 16.6735 17.5 17.5 17.5H19.138C19.4485 18.3715 20.2735 19 21.25 19C22.4905 19 23.5 17.9905 23.5 16.75C23.5 15.5095 22.4905 14.5 21.25 14.5C20.2735 14.5 19.4485 15.1285 19.138 16H17.5C15.8455 16 14.5 17.3455 14.5 19C14.5 20.6545 15.8455 22 17.5 22H25C25.8265 22 26.5 22.6735 26.5 23.5C26.5 24.3265 25.8265 25 25 25H11.362C11.0515 24.1285 10.2265 23.5 9.25 23.5C8.0095 23.5 7 24.5095 7 25.75C7 26.9905 8.0095 28 9.25 28C10.2265 28 11.0515 27.3715 11.362 26.5H25C26.6545 26.5 28 25.1545 28 23.5C28 21.8455 26.6545 20.5 25 20.5ZM21.25 16C21.664 16 22 16.336 22 16.75C22 17.164 21.664 17.5 21.25 17.5C20.836 17.5 20.5 17.164 20.5 16.75C20.5 16.336 20.836 16 21.25 16ZM9.25 26.5C8.836 26.5 8.5 26.164 8.5 25.75C8.5 25.336 8.836 25 9.25 25C9.664 25 10 25.336 10 25.75C10 26.164 9.664 26.5 9.25 26.5Z" fill="black"/>       
    </symbol>
    <symbol id="road__text" width="32" height="11" viewBox="0 0 32 11">
        <path xmlns="http://www.w3.org/2000/svg" d="M3.99463 2.056L0.842625 4.12V2.808L4.01063 0.615999H5.38663V11H3.99463V2.056ZM9.32388 9.144C9.32388 8.84533 9.37188 8.568 9.46788 8.312C9.57454 8.04533 9.70788 7.82133 9.86788 7.64C9.99588 7.49067 10.1879 7.33067 10.4439 7.16C10.7105 6.97867 10.9612 6.82933 11.1959 6.712C11.3985 6.60533 11.6652 6.48267 11.9959 6.344L13.7239 5.576C14.4065 5.27733 14.7479 4.81333 14.7479 4.184V2.76C14.7479 2.26933 14.5985 1.944 14.2999 1.784C14.0012 1.61333 13.4785 1.528 12.7319 1.528C11.9959 1.528 10.9825 1.64 9.69188 1.864V0.743999C10.7692 0.541333 11.8839 0.44 13.0359 0.44C14.1879 0.44 15.0199 0.616 15.5319 0.967999C16.0439 1.30933 16.2999 1.88533 16.2999 2.696V4.392C16.2999 4.776 16.2359 5.096 16.1079 5.352C15.9799 5.59733 15.7719 5.82133 15.4839 6.024C15.2065 6.216 14.7959 6.43467 14.2519 6.68L11.8519 7.784C11.1479 8.104 10.7959 8.57333 10.7959 9.192V9.88H16.2999V11H9.32388V9.144ZM22.4846 3.256H24.8046L27.1566 9.56H27.2206L29.4126 3.256H31.6526V11H30.3246V4.568H30.2446L27.8606 11H26.4046L23.9246 4.568H23.8446V11H22.4846V3.256Z" fill="black"/>
    </symbol>
    <symbol id="almond" width="32" height="32" viewBox="0 0 32 32">
            <g xmlns="http://www.w3.org/2000/svg" clip-path="url(#clip0)">
<path d="M26.08 11.2274V9.12612C26.08 8.73628 25.7639 8.42024 25.3741 8.42024H22.096C21.7061 8.42024 21.3901 8.73628 21.3901 9.12612V11.2274C21.0301 11.2596 20.7478 11.5617 20.7478 11.9301V15.7258C20.7478 16.5907 21.4515 17.2943 22.3164 17.2943H23.0292V24.8141C23.0292 25.7924 22.2331 26.5882 21.2546 26.5882H13.5383C12.5601 26.5882 11.7642 25.7924 11.7642 24.8141V23.2941H13.2654C13.6552 23.2941 13.9713 22.9781 13.9713 22.5882V20.298H14.7211C15.8887 20.298 16.8387 19.348 16.8387 18.1804V11.7782C16.8387 10.8261 16.2069 10.0189 15.3407 9.75327V7.33271C15.3407 6.94287 15.0246 6.62682 14.6348 6.62682H13.647V4.70588C13.647 4.31605 13.331 4 12.9412 4C12.5513 4 12.2353 4.31605 12.2353 4.70588V6.62682H9.88139V4.70588C9.88139 4.31605 9.56534 4 9.17551 4C8.78567 4 8.46963 4.31605 8.46963 4.70588V6.62682H7.48186C7.09202 6.62682 6.77598 6.94287 6.77598 7.33271V9.75327C5.90967 10.0189 5.27795 10.826 5.27795 11.7782V18.1804C5.27795 19.348 6.22793 20.298 7.3956 20.298H8.14539V22.5882C8.14539 22.9781 8.46144 23.2941 8.85127 23.2941H10.3524V24.8141C10.3524 26.5708 11.7816 28 13.5383 28H21.2546C23.0115 28 24.4409 26.5708 24.4409 24.8141V17.2943H25.1535C26.0184 17.2943 26.722 16.5907 26.722 15.7258V11.9301C26.722 11.5618 26.4398 11.2598 26.08 11.2274ZM13.9289 8.03859V9.66056H8.18774V8.03859H13.9289ZM6.68967 18.1804V11.7782C6.68967 11.389 7.00633 11.0723 7.39555 11.0723H14.7211C15.1103 11.0723 15.4269 11.389 15.4269 11.7782V18.1804C15.4269 18.5696 15.1103 18.8863 14.7211 18.8863C14.4252 18.8863 7.73245 18.8863 7.39555 18.8863C7.00633 18.8863 6.68967 18.5696 6.68967 18.1804ZM9.55715 20.298H12.5595V21.8824H9.55715V20.298ZM24.6682 9.832V11.2242H22.8019V9.832H24.6682ZM25.3103 15.7258C25.3103 15.8122 25.2399 15.8825 25.1535 15.8825C25.0671 15.8825 23.1153 15.8825 22.3164 15.8825C22.2299 15.8825 22.1596 15.8122 22.1596 15.7258V12.636H25.3103V15.7258Z" fill="black"/>
<path d="M10.1638 15.6851H10.8799L10.5678 16.4089C10.4134 16.7669 10.5785 17.1823 10.9364 17.3366C11.295 17.4911 11.7099 17.3255 11.8641 16.9679L12.6011 15.2588C12.802 14.7928 12.4593 14.2734 11.9529 14.2734H11.2368L11.5489 13.5496C11.7033 13.1917 11.5382 12.7763 11.1802 12.6219C10.8222 12.4676 10.4069 12.6327 10.2526 12.9906L9.51558 14.6998C9.31464 15.1657 9.65741 15.6851 10.1638 15.6851Z" fill="black"/>
</g>
<defs xmlns="http://www.w3.org/2000/svg">
<clipPath id="clip0">
<rect width="24" height="24" fill="white" transform="translate(4 4)"/>
</clipPath>
</defs>
    </symbol>
    <symbol id="almond__text" fill="none" xmlns="http://www.w3.org/2000/svg">
    <path xmlns="http://www.w3.org/2000/svg" d="M3.11538 11.16C2.21938 11.16 1.21138 11.0587 0.0913751 10.856V9.704C1.36071 9.97067 2.42204 10.104 3.27538 10.104C4.69404 10.104 5.40338 9.704 5.40338 8.904V7.128C5.40338 6.69067 5.16871 6.40267 4.69938 6.264C4.47538 6.21067 4.27271 6.17867 4.09138 6.168C3.92071 6.14667 3.69671 6.136 3.41938 6.136H1.41938V5.144H3.14738C3.42471 5.144 3.64871 5.13867 3.81938 5.128C3.99004 5.10667 4.18738 5.064 4.41138 5C4.64604 4.94667 4.82738 4.84533 4.95538 4.696C5.08338 4.54667 5.14738 4.35467 5.14738 4.12V2.264C5.14738 1.72 4.50738 1.448 3.22738 1.448C2.37404 1.448 1.39804 1.53333 0.299375 1.704V0.599999C1.21671 0.503999 2.18738 0.455999 3.21138 0.455999C4.39538 0.455999 5.25404 0.589333 5.78738 0.856C6.33138 1.112 6.60338 1.55467 6.60338 2.184V4.184C6.60338 4.51467 6.47004 4.792 6.20338 5.016C5.93671 5.22933 5.59538 5.368 5.17938 5.432V5.496C5.43538 5.53867 5.64338 5.58667 5.80338 5.64C5.97404 5.68267 6.15538 5.752 6.34738 5.848C6.72071 6.04 6.90738 6.376 6.90738 6.856V8.936C6.90738 9.29867 6.82738 9.624 6.66738 9.912C6.50738 10.2 6.30471 10.424 6.05938 10.584C5.84604 10.7333 5.56338 10.856 5.21138 10.952C4.85938 11.0373 4.51271 11.096 4.17138 11.128C3.76604 11.1493 3.41404 11.16 3.11538 11.16ZM18.3081 7.512C18.1695 8.248 17.3215 8.616 15.7641 8.616C14.7721 8.616 14.0735 8.44 13.6681 8.088C13.2735 7.72533 13.0761 7.16 13.0761 6.392V3.256H14.5161V6.296C14.5161 6.78667 14.6441 7.12267 14.9001 7.304C15.1561 7.48533 15.5828 7.576 16.1801 7.576C16.7668 7.576 17.2095 7.53867 17.5081 7.464C17.8175 7.37867 18.0255 7.24533 18.1321 7.064C18.2495 6.88267 18.3081 6.62667 18.3081 6.296V3.256H19.7481V11H18.3081V7.512Z" fill="black"/>
    </symbol>
    <symbol id="weight" width="32" height="32" viewBox="0 0 32 32">
        <path xmlns="http://www.w3.org/2000/svg" d="M24.3373 10.3997H18.9742C19.5392 9.7226 19.88 8.85193 19.88 7.90308C19.88 5.75085 18.1292 4 15.9771 4C13.8249 4 12.074 5.75085 12.074 7.90308C12.074 8.85193 12.4148 9.7226 12.9799 10.3997H7.6167L4.28125 28H27.6728L24.3373 10.3997ZM15.9771 5.40625C17.3537 5.40625 18.4738 6.52631 18.4738 7.90308C18.4738 9.27966 17.3537 10.3997 15.9771 10.3997C14.6003 10.3997 13.4803 9.27966 13.4803 7.90308C13.4803 6.52631 14.6003 5.40625 15.9771 5.40625ZM8.78143 11.806H23.1726L25.975 26.5938H5.979L8.78143 11.806Z" fill="black"/>
        <path xmlns="http://www.w3.org/2000/svg" d="M16.0055 16.4026H14.4094L12.1779 18.631V16.4026H11.0309V22.0225H12.1779V20.1017L12.7563 19.5377L14.5044 22.0225H15.985L13.5753 18.7496L16.0055 16.4026Z" fill="black"/>
        <path xmlns="http://www.w3.org/2000/svg" d="M18.2747 20.0007H19.7903V20.617C19.6685 20.7058 19.5026 20.793 19.2955 20.8766C19.0436 20.9786 18.7817 21.0303 18.5177 21.0303C18.2154 21.0303 17.9261 20.9627 17.6575 20.8294C17.3986 20.701 17.2063 20.5092 17.0701 20.2426C16.9294 19.9677 16.8582 19.6152 16.8582 19.195C16.8582 18.8546 16.9186 18.5355 17.0371 18.2474C17.1041 18.0872 17.1995 17.938 17.3207 17.8034C17.4363 17.6752 17.5936 17.569 17.7878 17.4879C17.9858 17.4053 18.2277 17.3634 18.5071 17.3634C18.7347 17.3634 18.9432 17.4028 19.1269 17.4804C19.3016 17.5542 19.4356 17.6511 19.5251 17.7681C19.6222 17.8948 19.7062 18.0775 19.7751 18.3113L19.8395 18.5302L20.8955 18.2405L20.8386 18.0191C20.7417 17.6419 20.5959 17.329 20.4052 17.0886C20.2094 16.8419 19.939 16.6482 19.601 16.5127C19.2736 16.3814 18.9044 16.3149 18.5036 16.3149C17.9539 16.3149 17.4592 16.4307 17.0331 16.6588C16.5969 16.8925 16.2585 17.2534 16.028 17.7314C15.8037 18.1962 15.6902 18.7026 15.6902 19.2373C15.6902 19.7786 15.8052 20.277 16.0324 20.7184C16.2648 21.1703 16.6132 21.5203 17.0684 21.7587C17.5139 21.9921 18.0145 22.1106 18.5563 22.1106C18.9579 22.1106 19.3547 22.0375 19.7357 21.8932C20.1131 21.7506 20.4832 21.5356 20.8356 21.2546L20.9233 21.1848V18.9271L18.2747 18.9313V20.0007Z" fill="black"/>       
    </symbol>
    <symbol id="weight__text" width="43" height="15" viewBox="0 0 43 15">
        <path xmlns="http://www.w3.org/2000/svg" d="M0.323875 9.144C0.323875 8.84533 0.371875 8.568 0.467875 8.312C0.574542 8.04533 0.707875 7.82133 0.867875 7.64C0.995875 7.49067 1.18788 7.33067 1.44388 7.16C1.71054 6.97867 1.96121 6.82933 2.19588 6.712C2.39854 6.60533 2.66521 6.48267 2.99588 6.344L4.72388 5.576C5.40654 5.27733 5.74788 4.81333 5.74788 4.184V2.76C5.74788 2.26933 5.59854 1.944 5.29988 1.784C5.00121 1.61333 4.47854 1.528 3.73188 1.528C2.99588 1.528 1.98254 1.64 0.691875 1.864V0.743999C1.76921 0.541333 2.88388 0.44 4.03588 0.44C5.18788 0.44 6.01988 0.616 6.53188 0.967999C7.04388 1.30933 7.29988 1.88533 7.29988 2.696V4.392C7.29988 4.776 7.23588 5.096 7.10788 5.352C6.97988 5.59733 6.77188 5.82133 6.48388 6.024C6.20654 6.216 5.79588 6.43467 5.25188 6.68L2.85188 7.784C2.14788 8.104 1.79588 8.57333 1.79588 9.192V9.88H7.29988V11H0.323875V9.144ZM13.5571 2.056L10.4051 4.12V2.808L13.5731 0.615999H14.9491V11H13.5571V2.056ZM22.1824 11.16C21.3184 11.16 20.2997 11.064 19.1264 10.872V9.72C20.3637 9.976 21.3984 10.104 22.2304 10.104C22.881 10.104 23.3557 10.0133 23.6544 9.832C23.9637 9.64 24.1184 9.33067 24.1184 8.904V6.84C24.1184 6.392 23.9264 6.104 23.5424 5.976C23.361 5.92267 23.1904 5.89067 23.0304 5.88C22.881 5.85867 22.6837 5.848 22.4384 5.848H19.3664V0.615999H25.3504V1.704H20.8064V4.856H23.2064C23.633 4.856 24.0117 4.90933 24.3424 5.016C24.673 5.112 24.9664 5.28267 25.2224 5.528C25.489 5.79467 25.6224 6.14133 25.6224 6.568V8.936C25.6224 9.30933 25.553 9.64 25.4144 9.928C25.2864 10.2053 25.1104 10.424 24.8864 10.584C24.6837 10.7333 24.4224 10.856 24.1024 10.952C23.793 11.048 23.4837 11.1067 23.1744 11.128C22.7904 11.1493 22.4597 11.16 22.1824 11.16ZM28.3596 3.256H33.4156V4.312H29.7996V11H28.3596V3.256ZM34.9824 3.256H36.4224V4.088C36.5397 3.42667 37.4197 3.096 39.0624 3.096C40.0437 3.096 40.785 3.304 41.2864 3.72C41.7877 4.12533 42.0384 4.648 42.0384 5.288V8.472C42.0384 8.93067 41.969 9.33067 41.8304 9.672C41.7024 10.0133 41.5317 10.28 41.3184 10.472C41.1264 10.6533 40.8597 10.7973 40.5184 10.904C40.1877 11.0107 39.857 11.08 39.5264 11.112C39.2277 11.144 38.865 11.16 38.4384 11.16C37.969 11.16 37.537 11.1067 37.1424 11C36.7584 10.8827 36.5184 10.7173 36.4224 10.504V14.168H34.9824V3.256ZM38.4704 10.184C39.025 10.184 39.4464 10.1467 39.7344 10.072C40.033 9.98667 40.2464 9.83733 40.3744 9.624C40.5024 9.41067 40.5664 9.08533 40.5664 8.648V5.8C40.5664 5.32 40.5024 4.96267 40.3744 4.728C40.2464 4.49333 40.033 4.33867 39.7344 4.264C39.4464 4.17867 39.0197 4.136 38.4544 4.136C37.889 4.136 37.457 4.17867 37.1584 4.264C36.8704 4.33867 36.6624 4.49333 36.5344 4.728C36.4064 4.96267 36.3424 5.32 36.3424 5.8V8.648C36.3424 9.07467 36.4064 9.4 36.5344 9.624C36.673 9.83733 36.8917 9.98667 37.1904 10.072C37.489 10.1467 37.9157 10.184 38.4704 10.184Z" fill="black"/>             
    </symbol>
    <symbol id="patent" width="24" height="24" viewBox="0 0 24 24">
        <path xmlns="http://www.w3.org/2000/svg" d="M24 1.78125H0V19.2266H14.7643V22.2543L17.3884 20.9725L20.0125 22.2543V19.2266H24V1.78125ZM17.3884 16.413C16.0701 16.413 14.9978 15.3406 14.9978 14.0224C14.9978 12.7042 16.0701 11.6318 17.3884 11.6318C18.7066 11.6318 19.7791 12.7042 19.7791 14.0224C19.7791 15.3406 18.7066 16.413 17.3884 16.413ZM17.3884 19.4075L16.1706 20.0023V17.6177C16.5531 17.7477 16.9623 17.8193 17.3884 17.8193C17.8143 17.8193 18.2236 17.7477 18.6063 17.6177V20.0023L17.3884 19.4075ZM22.5938 17.8204H20.0125V16.7626C20.7343 16.071 21.1853 15.0987 21.1853 14.0224C21.1853 11.9288 19.4821 10.2255 17.3884 10.2255C15.2948 10.2255 13.5916 11.9288 13.5916 14.0224C13.5916 15.0987 14.0424 16.0712 14.7643 16.7626V17.8204H1.40625V3.1875H22.5938V17.8204Z" fill="black"/>
        <path xmlns="http://www.w3.org/2000/svg" d="M2.81415 7.41064H21.1859V8.81689H2.81415V7.41064Z" fill="black"/>
        <path xmlns="http://www.w3.org/2000/svg" d="M4.92517 4.59595H19.0748V6.0022H4.92517V4.59595Z" fill="black"/>
        <path xmlns="http://www.w3.org/2000/svg" d="M2.81415 15.0056H9.65442V16.4119H2.81415V15.0056Z" fill="black"/>
        <path xmlns="http://www.w3.org/2000/svg" d="M2.81415 12.1908H9.65442V13.597H2.81415V12.1908Z" fill="black"/>           
    </symbol>
    <symbol id="patent__text" width="36" height="14" viewBox="0 0 36 14">
        <path xmlns="http://www.w3.org/2000/svg" d="M3.24463 2.056L0.0926251 4.12V2.808L3.26063 0.615999H4.63663V11H3.24463V2.056ZM12.4534 3.256H17.5094V4.312H13.8934V11H12.4534V3.256ZM22.3561 11.16C21.6735 11.16 21.1615 11.1333 20.8201 11.08C20.4788 11.0373 20.1375 10.936 19.7961 10.776C19.4441 10.616 19.1881 10.36 19.0281 10.008C18.8681 9.64533 18.7881 9.16 18.7881 8.552V5.864C18.7881 5.384 18.8468 4.96267 18.9641 4.6C19.0815 4.23733 19.2361 3.95467 19.4281 3.752C19.5881 3.57067 19.8281 3.432 20.1481 3.336C20.4788 3.22933 20.8148 3.16 21.1561 3.128C21.5401 3.10667 21.9401 3.096 22.3561 3.096C22.9108 3.096 23.3268 3.112 23.6041 3.144C23.8921 3.16533 24.1961 3.21867 24.5161 3.304C24.8468 3.4 25.1028 3.544 25.2841 3.736C25.4655 3.928 25.6201 4.20533 25.7481 4.568C25.8655 4.94133 25.9241 5.37333 25.9241 5.864V8.552C25.9241 9.45867 25.7161 10.12 25.3001 10.536C25.1295 10.7067 24.8841 10.84 24.5641 10.936C24.2441 11.032 23.9135 11.096 23.5721 11.128C23.1668 11.1493 22.7615 11.16 22.3561 11.16ZM22.3561 10.216C22.8041 10.216 23.1295 10.2053 23.3321 10.184C23.5348 10.1627 23.7321 10.104 23.9241 10.008C24.1161 9.92267 24.2495 9.784 24.3241 9.592C24.4095 9.38933 24.4521 9.112 24.4521 8.76V5.624C24.4521 5.144 24.3935 4.79733 24.2761 4.584C24.1588 4.36 23.9561 4.216 23.6681 4.152C23.3908 4.07733 22.9535 4.04 22.3561 4.04C21.7588 4.04 21.3161 4.07733 21.0281 4.152C20.7508 4.216 20.5535 4.36 20.4361 4.584C20.3188 4.79733 20.2601 5.144 20.2601 5.624V8.76C20.2601 9.112 20.2975 9.38933 20.3721 9.592C20.4575 9.784 20.5961 9.92267 20.7881 10.008C20.9801 10.104 21.1775 10.1627 21.3801 10.184C21.5828 10.2053 21.9081 10.216 22.3561 10.216ZM35.5139 10.056V13.144H34.2819V11H28.3139V13.144H27.0819V10.056H27.5779C27.8125 10.056 28.0419 9.88 28.2659 9.528C28.4899 9.16533 28.6765 8.58933 28.8259 7.8C28.9752 7 29.0499 5.98667 29.0499 4.76V3.256H34.4259V10.056H35.5139ZM32.9859 10.056V4.2H30.3139V5.32C30.3139 6.42933 30.2392 7.384 30.0899 8.184C29.9512 8.97333 29.6899 9.59733 29.3059 10.056H32.9859Z" fill="black"/>                  
    </symbol>
    <symbol id="play-icon" width="10" height="15" viewBox="0 0 232.153 232.153">
        <path xmlns="http://www.w3.org/2000/svg" style="fill-rule:evenodd;clip-rule:evenodd;" d="M203.791,99.628L49.307,2.294c-4.567-2.719-10.238-2.266-14.521-2.266   c-17.132,0-17.056,13.227-17.056,16.578v198.94c0,2.833-0.075,16.579,17.056,16.579c4.283,0,9.955,0.451,14.521-2.267   l154.483-97.333c12.68-7.545,10.489-16.449,10.489-16.449S216.471,107.172,203.791,99.628z"/>                
    </symbol>
    <symbol id="marker" width="58" height="73" viewBox="0 0 58 73" fill="none">
        <path d="M29 0C18.913 0 0 7.68421 0 29.4561C0 51.2281 29 73 29 73C29 73 58 51.2281 58 29.4561C58 7.68421 39.087 0 29 0Z" fill="#E01F3D"/>
<g clip-path="url(#clip0)">
        <path d="M29 33.8105C31.5184 33.8105 33.5789 31.7358 33.5789 29.2C33.5789 26.6642 31.5184       24.5894 29 24.5894C26.4816 24.5894 24.421 26.6642 24.421 29.2C24.421 31.7358 26.4816 33.    8105 29 33.8105ZM29 13.8315C27.4737 13.8315 25.871 14.0621 24.421 14.5231V23.0526C27.7789         20.5168 32.5868 21.2084 35.1053 24.5894C37.6237 27.9705 36.9368 32.8115 33.5789 35.     3473C30.221 37.8831 25.4132 37.1915 22.8947 33.8105C21.9026 32.5042 21.3684 30.8905 21.     3684 29.2V15.9063C14.0421 20.1326 11.6 29.5073 15.7974 36.8842C19.9947 44.261 29.3053 46.  72 36.6316 42.4936C43.9579 38.2673 46.4 28.8926 42.2026 21.5158C39.5316 16.7515 34.4947      13.8315 29 13.8315Z" fill="white"/>
        </g>
        <defs>
        <clipPath id="clip0">
        <rect width="30.5263" height="30.7368" fill="white" transform="translate(13.7368 13.8315)"/>
        </clipPath>
        </defs>              
    </symbol>
</svg>
